<svg width="16" height="16" viewBox="0 0 16 16" fill="none" xmlns="http://www.w3.org/2000/svg">
<path d="M4 6.66667L2 8.66667L4 10.6667L6 8.66667M6.66667 4L8.66667 2L10.6667 4L8.66667 6M8 8L9 9M9.66667 11.3333C10.1087 11.3333 10.5326 11.1577 10.8452 10.8452C11.1577 10.5326 11.3333 10.1087 11.3333 9.66667M10 14C11.0609 14 12.0783 13.5786 12.8284 12.8284C13.5786 12.0783 14 11.0609 14 10M2.47131 4.1954L4.19531 2.4714C4.32033 2.34641 4.48987 2.2762 4.66665 2.2762C4.84342 2.2762 5.01296 2.34641 5.13798 2.4714L8.86198 6.1954C8.98696 6.32041 9.05717 6.48995 9.05717 6.66673C9.05717 6.8435 8.98696 7.01304 8.86198 7.13806L7.13798 8.86206C7.01296 8.98704 6.84342 9.05725 6.66665 9.05725C6.48987 9.05725 6.32033 8.98704 6.19531 8.86206L2.47131 5.13806C2.34633 5.01304 2.27612 4.8435 2.27612 4.66673C2.27612 4.48995 2.34633 4.32041 2.47131 4.1954Z" stroke="#44A0F5" stroke-width="1.2" stroke-linecap="round" stroke-linejoin="round"/>
</svg>
